<?xml version="1.0" encoding="UTF-8" standalone="no"?>
<!DOCTYPE svg PUBLIC "-//W3C//DTD SVG 1.1//EN" "http://www.w3.org/Graphics/SVG/1.1/DTD/svg11.dtd">
<svg width="100%" height="100%" viewBox="0 0 512 512" version="1.1" xmlns="http://www.w3.org/2000/svg" xmlns:xlink="http://www.w3.org/1999/xlink" xml:space="preserve" xmlns:serif="http://www.serif.com/" style="fill-rule:evenodd;clip-rule:evenodd;stroke-linejoin:round;">
    <g transform="matrix(8.92034,0,0,8.92034,-20.6389,-16.9496)">
        <g>
            <g>
                <g>
                    <g transform="matrix(1.00462,0,0,0.894079,-0.141755,10.4352)">
                        <path d="M56.833,10.819C56.833,10.551 56.64,10.333 56.401,10.333L5.599,10.333C5.36,10.333 5.167,10.551 5.167,10.819L5.167,51.181C5.167,51.449 5.36,51.667 5.599,51.667L56.401,51.667C56.64,51.667 56.833,51.449 56.833,51.181L56.833,10.819Z" style="fill:none;stroke:black;stroke-width:5.17px;"/>
                    </g>
                    <g transform="matrix(1,0,0,1,0,-5.76546)">
                        <path d="M5.167,14.208C5.167,12.083 6.916,10.333 9.042,10.333L52.958,10.333C55.084,10.333 56.833,12.083 56.833,14.208L56.833,25.833L5.167,25.833L5.167,14.208Z" style="fill:none;fill-rule:nonzero;stroke:black;stroke-width:5.17px;stroke-linejoin:miter;"/>
                    </g>
                    <g transform="matrix(0,-1,-1,0,12.9167,12.3179)">
                        <circle cx="0" cy="0" r="2.583"/>
                    </g>
                    <g transform="matrix(0,-1,-1,0,20.6667,12.3179)">
                        <circle cx="0" cy="0" r="2.583"/>
                    </g>
                </g>
            </g>
        </g>
    </g>
    <g transform="matrix(0.781937,0,0,0.781937,-4.2989,61.3685)">
        <text x="133.387px" y="440.344px" style="font-family:'ArialRoundedMTBold', 'Arial Rounded MT Bold', sans-serif;font-size:242.986px;">API</text>
    </g>
</svg>
